<svg width="500" height="500" viewBox="0 0 500 500" fill="none" xmlns="http://www.w3.org/2000/svg">
<rect width="500" height="500" rx="35" fill="white"/>
<rect x="30" y="110" width="204" height="57" rx="9" fill="#D9D9D9"/>
<rect x="30" y="37" width="204" height="57" rx="9" fill="#D9D9D9"/>
<rect x="30" y="183" width="204" height="57" rx="9" fill="#D9D9D9"/>
<rect x="31" y="256" width="204" height="57" rx="9" fill="#D9D9D9"/>
<rect x="31" y="329" width="204" height="57" rx="9" fill="#D9D9D9"/>
<rect x="31" y="402" width="204" height="57" rx="9" fill="#D9D9D9"/>
<rect x="264" y="110" width="204" height="57" rx="9" fill="#D9D9D9"/>
<rect x="264" y="37" width="204" height="57" rx="9" fill="#D9D9D9"/>
<rect x="264" y="183" width="204" height="57" rx="9" fill="#D9D9D9"/>
<rect x="265" y="256" width="204" height="57" rx="9" fill="#D9D9D9"/>
<rect x="265" y="329" width="204" height="57" rx="9" fill="#D9D9D9"/>
<rect x="265" y="402" width="204" height="57" rx="9" fill="#D9D9D9"/>
</svg>
