<svg width="500" height="500" viewBox="0 0 500 500" fill="none" xmlns="http://www.w3.org/2000/svg">
<rect width="500" height="500" rx="35" fill="white"/>
<path d="M40.944 77V49.736H30.192V43.4H59.472V49.736H48.72V77H40.944ZM63.1279 77V51.176H70.6159V77H63.1279ZM66.8719 47.576C65.4959 47.576 64.3759 47.176 63.5119 46.376C62.6479 45.576 62.2159 44.584 62.2159 43.4C62.2159 42.216 62.6479 41.224 63.5119 40.424C64.3759 39.624 65.4959 39.224 66.8719 39.224C68.2479 39.224 69.3679 39.608 70.2319 40.376C71.0959 41.112 71.5279 42.072 71.5279 43.256C71.5279 44.504 71.0959 45.544 70.2319 46.376C69.3999 47.176 68.2799 47.576 66.8719 47.576ZM88.1254 77.384C85.0854 77.384 82.7174 76.616 81.0214 75.08C79.3254 73.512 78.4774 71.192 78.4774 68.12V45.464H85.9654V68.024C85.9654 69.112 86.2534 69.96 86.8294 70.568C87.4054 71.144 88.1894 71.432 89.1814 71.432C90.3654 71.432 91.3734 71.112 92.2054 70.472L94.2214 75.752C93.4534 76.296 92.5254 76.712 91.4374 77C90.3814 77.256 89.2774 77.384 88.1254 77.384ZM74.4934 57.512V51.752H92.3974V57.512H74.4934ZM98.4248 77V41.384H105.913V77H98.4248ZM125.678 77.384C122.734 77.384 120.142 76.808 117.902 75.656C115.694 74.504 113.982 72.936 112.766 70.952C111.55 68.936 110.942 66.648 110.942 64.088C110.942 61.496 111.534 59.208 112.718 57.224C113.934 55.208 115.582 53.64 117.662 52.52C119.742 51.368 122.094 50.792 124.718 50.792C127.246 50.792 129.518 51.336 131.534 52.424C133.582 53.48 135.198 55.016 136.382 57.032C137.566 59.016 138.158 61.4 138.158 64.184C138.158 64.472 138.142 64.808 138.11 65.192C138.078 65.544 138.046 65.88 138.014 66.2H117.038V61.832H134.078L131.198 63.128C131.198 61.784 130.926 60.616 130.382 59.624C129.838 58.632 129.086 57.864 128.126 57.32C127.166 56.744 126.046 56.456 124.766 56.456C123.486 56.456 122.35 56.744 121.358 57.32C120.398 57.864 119.646 58.648 119.102 59.672C118.558 60.664 118.286 61.848 118.286 63.224V64.376C118.286 65.784 118.59 67.032 119.198 68.12C119.838 69.176 120.718 69.992 121.838 70.568C122.99 71.112 124.334 71.384 125.87 71.384C127.246 71.384 128.446 71.176 129.47 70.76C130.526 70.344 131.486 69.72 132.35 68.888L136.334 73.208C135.15 74.552 133.662 75.592 131.87 76.328C130.078 77.032 128.014 77.384 125.678 77.384Z" fill="#FED700"/>
<rect x="30" y="110" width="204" height="57" rx="9" fill="#D9D9D9"/>
<rect x="30" y="183" width="204" height="57" rx="9" fill="#D9D9D9"/>
<rect x="31" y="256" width="204" height="57" rx="9" fill="#D9D9D9"/>
<rect x="31" y="329" width="204" height="57" rx="9" fill="#D9D9D9"/>
<rect x="31" y="402" width="204" height="57" rx="9" fill="#D9D9D9"/>
<rect x="264" y="110" width="204" height="57" rx="9" fill="#D9D9D9"/>
<rect x="264" y="183" width="204" height="57" rx="9" fill="#D9D9D9"/>
<rect x="265" y="256" width="204" height="57" rx="9" fill="#D9D9D9"/>
<rect x="265" y="329" width="204" height="57" rx="9" fill="#D9D9D9"/>
<rect x="265" y="402" width="204" height="57" rx="9" fill="#D9D9D9"/>
</svg>
